# File produced by Open Asset Import Library (http://www.assimp.sf.net)
# (assimp v3.1.187496374)

mtllib arrow.obj.mtl

# 6 vertex positions
v  0.5 -2.69053e-17 -0.694546
v  5.12222e-16 1.9329e-17 0.512561
v  1.98751e-17 -0.05 -0.512561
v  6.75105e-17 0.05 -0.512561
v  9.39073e-17 -3.14598e-15 -0.517089
v  -0.5 -2.69053e-17 -0.694546

# 0 UV coordinates

# 8 vertex normals
vn 0.116808 -0.991975 0.0483833
vn 0.116808 0.991975 0.0483833
vn -0.333261 -0.0850417 -0.938992
vn -0.333261 0.0850417 -0.938992
vn 0.333261 0.0850417 -0.938992
vn -0.116808 0.991975 0.0483833
vn 0.333261 -0.0850417 -0.938992
vn -0.116808 -0.991975 0.0483833

# Mesh '<STL_BINARY>' with 8 faces
g <STL_BINARY>
usemtl DefaultMaterial
f  1//1 2//1 3//1
f  4//2 2//2 1//2
f  3//3 5//3 1//3
f  5//4 4//4 1//4
f  5//5 6//5 4//5
f  6//6 2//6 4//6
f  3//7 6//7 5//7
f  3//8 2//8 6//8

